<svg width="512" height="512" viewBox="0 0 512 512" fill="none" xmlns="http://www.w3.org/2000/svg">
  <rect width="512" height="512" rx="110" fill="white"/>
  <path d="M70 177C153 139 247 107 334 114C408 120 458 158 475 218C492 278 455 332 398 377C435 315 418 274 359 244C294 211 201 198 70 177Z" fill="#2F3192"/>
  <path d="M159 338C116 306 113 255 151 199C103 270 91 342 126 390C162 440 235 446 316 421C391 398 444 365 475 343C469 317 428 305 354 304C260 303 201 369 159 338Z" fill="#FFD200"/>
  <path d="M146 395L301 350V388L146 433V395Z" fill="#2F3192"/>
  <path d="M320 344L406 319V390C406 409 394 425 376 430L320 446V344Z" fill="#2F3192"/>
  <path d="M255 363L300 350V429L255 442V363Z" fill="#2F3192"/>
  <path d="M376 338L456 315V394L376 417V338Z" fill="#2F3192"/>
  <path d="M147 438L202 422V456L147 472V438Z" fill="#2F3192"/>
  <path d="M213 419L255 407V441L213 453V419Z" fill="#2F3192"/>
</svg>